<svg xmlns="http://www.w3.org/2000/svg" viewBox="0 0 64 64" role="img" aria-label="Het Rijm Spel icon">
  <defs>
    <linearGradient id="bg" x1="0" y1="0" x2="1" y2="1">
      <stop offset="0%" stop-color="#0f172a"/>
      <stop offset="100%" stop-color="#1e293b"/>
    </linearGradient>
    <linearGradient id="pulse" x1="0" y1="0" x2="1" y2="0">
      <stop offset="0%" stop-color="#22d3ee"/>
      <stop offset="100%" stop-color="#facc15"/>
    </linearGradient>
  </defs>

  <rect x="2" y="2" width="60" height="60" rx="14" fill="url(#bg)"/>

  <circle cx="32" cy="32" r="20" fill="none" stroke="#334155" stroke-width="3"/>
  <circle cx="32" cy="32" r="15" fill="none" stroke="url(#pulse)" stroke-width="3" stroke-linecap="round" stroke-dasharray="20 9"/>

  <rect x="15" y="39" width="6" height="12" rx="2" fill="#22d3ee"/>
  <rect x="23" y="34" width="6" height="17" rx="2" fill="#38bdf8"/>
  <rect x="31" y="29" width="6" height="22" rx="2" fill="#f59e0b"/>
  <rect x="39" y="24" width="6" height="27" rx="2" fill="#facc15"/>

  <path d="M42 14v19.2a5.8 5.8 0 1 1-2.8-5V17.2l10.3-2.8V27a5.8 5.8 0 1 1-2.8-5V17.9L42 19z" fill="#f8fafc"/>

  <rect x="2" y="2" width="60" height="60" rx="14" fill="none" stroke="#64748b" stroke-width="1.5"/>
</svg>
